<svg xmlns="http://www.w3.org/2000/svg" width="375" height="171" viewBox="0 0 375 171"><path d="m53.07 161.987c-5.948-1.393-8.692-4.436-8.33-9.238 0.454-6.007 3.861-8.045 14.175-8.476 8.787-0.368 16.211 1.603 15.368 4.08-0.45 1.322-4.764 1.393-12.515 0.205-5.286-0.81-7.231 0.591-7.231 5.207 0 2.733 0.505 3.594 2.569 4.379 3.016 1.147 7.456 0.325 9.063-1.677 0.819-1.02 2.274-1.228 5.25-0.752 4.554 0.728 4.956 1.347 2.367 3.648-3.777 3.357-12.739 4.493-20.717 2.624zm35.876 0.057c-10.604-2.544-12.34-12.551-2.864-16.51 5.226-2.183 17.677-1.853 22.478 0.596 6.467 3.299 6.636 10.531 0.332 14.212-3.754 2.193-14.189 3.083-19.946 1.702zm13.335-5.129c1.972-1.637 1.54-6.574-0.679-7.762-3.244-1.736-8.575-1.235-10.593 0.995-5.021 5.549 5.285 11.736 11.272 6.767zm168.756 5.335c-4.531-1.186-7.5-3.034-7.5-4.668 0-2.041 8.301-2.012 10 0.035 1.685 2.03 9 2.046 9 0.019 0-0.815-1.012-1.711-2.25-1.992-1.237-0.281-4.445-0.98-7.127-1.552-6.805-1.452-8.804-2.7-8.434-5.268 0.472-3.276 4.461-4.678 13.311-4.678 7.893 0 12.449 1.279 13.254 3.721 0.525 1.592-8.857 1.747-10.433 0.172-1.307-1.307-6.456-0.827-6.206 0.578 0.098 0.55 3.188 1.507 6.867 2.127 8.511 1.434 11.017 2.772 11.017 5.883 0 1.704-0.913 2.911-3.028 4.005-3.528 1.824-14.134 2.753-18.472 1.618zm-151.5-9.132v-9l4.75 0.025c4.215 0.023 5.425 0.588 10.75 5.022l6 4.997 0.302-5.022 0.302-5.022h4.448 4.448v9 9h-4.885c-4.313 0-5.525-0.527-10.351-4.5-3.006-2.475-5.758-4.5-6.115-4.5-0.357 0-0.649 2.025-0.649 4.5v4.5h-4.5-4.5zm38-0.002v-9.165l11.931 0.334c10.239 0.286 12.33 0.631 14.75 2.434 4.057 3.022 4.436 9.001 0.789 12.432-2.451 2.305-3.445 2.49-15.047 2.8l-12.422 0.331v-9.165zm18.8 3.802c0.66-0.66 1.2-2.444 1.2-3.965 0-3.189-2.361-4.835-6.934-4.835-3.012 0-3.066 0.087-3.066 5v5h3.8c2.09 0 4.34-0.54 5-1.2zm17.2-3.8v-9h13.5c12.833 0 13.5 0.099 13.5 2 0 1.843-0.667 2-8.5 2-6.889 0-8.5 0.284-8.5 1.5 0 1.209 1.564 1.5 8.073 1.5 7.15 0 8.035 0.2 7.739 1.75-0.278 1.456-1.636 1.799-8.073 2.042-5.98 0.226-7.739 0.624-7.739 1.75 0 1.163 1.72 1.458 8.5 1.458 7.833 0 8.5 0.157 8.5 2 0 1.901-0.667 2-13.5 2h-13.5zm33 0v-9h4.768c4.24 0 5.431 0.547 10.75 4.94l5.982 4.94 0.302-4.94 0.302-4.94h4.448 4.448v9 9H252.78c-4.159 0-5.447-0.566-10.243-4.5-3.017-2.475-5.827-4.5-6.243-4.5-0.416 0-0.757 2.025-0.757 4.5v4.5h-4.5-4.5zm72 0v-9h13.573c12.388 0 13.544 0.153 13.239 1.75-0.281 1.469-1.659 1.797-8.573 2.04-6.423 0.226-8.239 0.612-8.239 1.75 0 1.15 1.592 1.46 7.5 1.46 6.833 0 7.5 0.178 7.5 2 0 1.822-0.667 2-7.5 2-6 0-7.5 0.3-7.5 1.5 0 1.216 1.611 1.5 8.5 1.5 7.833 0 8.5 0.157 8.5 2 0 1.901-0.667 2-13.5 2h-13.5zm33 0v-9l10.75 0.002c8.235 0.001 11.566 0.411 14.239 1.75 6.253 3.133 6.641 10.674 0.734 14.276-2.699 1.645-5.054 1.966-14.473 1.969l-11.25 0.003zm18.8 3.8c1.683-1.683 1.494-5.364-0.371-7.229-0.864-0.864-3.114-1.571-5-1.571h-3.429v5 5h3.8c2.09 0 4.34-0.54 5-1.2zm-306.024-33.05-0.276-15.25-15.25-0.276-15.25-0.276V96.117 84.169l15.25-0.276 15.25-0.276 0.272-19.25 0.272-19.25h41.978c23.322 0 41.978 0.389 41.978 0.875 0 1.302-9.13 23.424-10.266 24.875-0.728 0.929-6.353 1.25-21.906 1.25h-20.927l0.3 5.75 0.3 5.75 18.31 0.273 18.31 0.273-0.703 2.227c-0.387 1.225-2.551 6.603-4.81 11.951l-4.107 9.723-13.5 0.277-13.5 0.277-0.276 15.25-0.276 15.25h-15.448-15.448zm59.224 14.891c0-0.645 2.689-7.173 26.422-64.141 25.453-61.098 27.765-66.5 28.461-66.5 0.356 0 4.318 8.888 8.805 19.75 4.487 10.863 12.199 29.425 17.136 41.25 4.938 11.825 13.296 31.85 18.575 44.5 5.278 12.65 9.598 23.593 9.599 24.317 0.001 0.87-0.689 1.098-2.033 0.672-1.119-0.355-9.071-1.637-17.671-2.848l-15.636-2.203-1.167-3.469-1.167-3.469-16.544-0.274-16.544-0.274-1.568 3.92c-1.54 3.848-1.683 3.932-7.868 4.594-6.554 0.702-22.642 3.247-26.55 4.201-1.237 0.302-2.25 0.29-2.25-0.026zm62.749-35.891c-0.255-0.687-1.932-5.3-3.726-10.25-1.794-4.95-3.589-9.359-3.989-9.797-0.401-0.438-2.327 3.387-4.28 8.5-1.953 5.113-3.87 10.084-4.26 11.047-0.642 1.587 0.104 1.75 8.006 1.75 6.552 0 8.599-0.31 8.249-1.25zm52.251 2.275V71.117h-10.525c-9.987 0-10.57-0.115-11.407-2.25-0.485-1.237-2.921-7.087-5.413-13l-4.531-10.75h86.938 86.938v12.983 12.983l-24.75 0.267-24.75 0.267-0.307 4.25-0.307 4.25h23.058 23.058v11.5 11.5h-23-23v5 5h25 25v13.011 13.011l-40.25-0.261-40.25-0.261-0.263-33.75-0.263-33.75h-14.473-14.473l-0.263 33.75-0.263 33.75-15.75 0.275-15.75 0.275z"/></svg>